<svg width="120" height="120" viewBox="0 0 120 120" fill="none" xmlns="http://www.w3.org/2000/svg">
<path d="M73.4083 54.5282L82.1482 39.6985L105.705 76.3898L105.716 83.4309L105.64 34.9771C105.584 33.7927 104.955 32.7091 103.951 32.0702L61.5398 7.67434C60.5478 7.18683 59.2895 7.192 58.2994 7.68948C58.1657 7.75669 58.0397 7.82945 57.9197 7.90885L57.772 8.00192L16.6045 31.8582L16.4446 31.9306C16.2393 32.0251 16.0317 32.1452 15.8367 32.2848C15.0563 32.8447 14.5378 33.6723 14.3701 34.6008C14.345 34.7415 14.3266 34.8848 14.3177 35.0292L14.3823 74.5144L36.3248 40.5047C39.0873 35.995 45.1065 34.5424 50.6939 34.6215L57.252 34.7947L18.6122 96.7619L23.167 99.3844L62.2699 34.8575L79.5534 34.7947L40.5513 100.95L56.8044 110.298L58.7462 111.415C59.5676 111.749 60.536 111.766 61.3644 111.467L104.372 86.5432L96.1496 91.3078L73.4083 54.5282ZM76.7429 102.554L60.3269 76.7898L70.3477 59.7855L91.9068 93.7663L76.7429 102.554Z" fill="#2D374B"/>
<path d="M60.3284 76.7898L76.7444 102.554L91.9087 93.7664L70.3496 59.7855L60.3284 76.7898Z" fill="#28A0F0"/>
<path d="M105.717 83.4307L105.706 76.3896L82.1486 39.6984L73.4087 54.5281L96.15 91.3076L104.373 86.543C105.179 85.8882 105.667 84.9269 105.718 83.8894L105.717 83.4307Z" fill="#28A0F0"/>
<path d="M7.00037 90.0713L18.6118 96.7619L57.2516 34.7947L50.6936 34.6214C45.1062 34.5424 39.0873 35.9949 36.3244 40.5047L14.382 74.5144L7 85.8566V90.0713H7.00037Z" fill="white"/>
<path d="M79.5524 34.7947L62.2693 34.8575L23.1663 99.3845L36.8338 107.254L40.5506 100.95L79.5524 34.7947Z" fill="white"/>
<path d="M113 34.7056C112.856 31.0911 110.899 27.782 107.833 25.8556L64.8653 1.14619C61.8328 -0.380954 58.0443 -0.382801 55.007 1.14508C54.6481 1.32605 13.2217 25.3518 13.2217 25.3518C12.6485 25.6266 12.0964 25.9542 11.5768 26.3257C8.84009 28.2872 7.17187 31.3348 7.0005 34.6835V85.8569L14.3825 74.5147L14.3179 35.0295C14.3267 34.8851 14.3448 34.7433 14.3703 34.603C14.5369 33.6737 15.0558 32.845 15.8369 32.2851C16.0319 32.1455 58.1655 7.75703 58.2995 7.68981C59.2901 7.19234 60.5483 7.18717 61.54 7.67467L103.952 32.0705C104.955 32.7094 105.584 33.793 105.64 34.9774V83.8899C105.588 84.9273 105.179 85.8883 104.372 86.5435L96.1494 91.3081L91.907 93.7667L76.7427 102.555L61.3642 111.467C60.5358 111.766 59.5674 111.75 58.746 111.415L40.5511 100.95L36.8342 107.254L53.1855 116.668C53.7262 116.976 54.2082 117.248 54.6034 117.47C55.2157 117.814 55.6327 118.043 55.78 118.115C56.9423 118.679 58.6142 119.008 60.121 119.008C61.5027 119.008 62.8496 118.754 64.1245 118.254L108.792 92.3861C111.356 90.3999 112.864 87.4044 113 84.1592V34.7056Z" fill="#96BEDC"/>
</svg>
