<svg width="564" height="150" viewBox="0 0 564 150" fill="none" xmlns="http://www.w3.org/2000/svg">
<circle cx="559" cy="5" r="5" fill="#3676A1"/>
<circle cx="543.611" cy="5" r="5" fill="#3676A1"/>
<circle cx="528.222" cy="5" r="5" fill="#3676A1"/>
<circle cx="512.833" cy="5" r="5" fill="#3676A1"/>
<circle cx="497.444" cy="5" r="5" fill="#3676A1"/>
<circle cx="482.056" cy="5" r="5" fill="#3676A1"/>
<circle cx="466.667" cy="5" r="5" fill="#3676A1"/>
<circle cx="451.278" cy="5" r="5" fill="#3676A1"/>
<circle cx="435.889" cy="5" r="5" fill="#3676A1"/>
<circle cx="420.5" cy="5" r="5" fill="#3676A1"/>
<circle cx="405.111" cy="5" r="5" fill="#3676A1"/>
<circle cx="389.722" cy="5" r="5" fill="#3676A1"/>
<circle cx="374.333" cy="5" r="5" fill="#3676A1"/>
<circle cx="358.944" cy="5" r="5" fill="#3676A1"/>
<circle cx="343.556" cy="5" r="5" fill="#3676A1"/>
<circle cx="328.167" cy="5" r="5" fill="#3676A1"/>
<circle cx="312.778" cy="5" r="5" fill="#3676A1"/>
<circle cx="297.389" cy="5" r="5" fill="#3676A1"/>
<circle cx="282" cy="5" r="5" fill="#3676A1"/>
<circle cx="266.611" cy="5" r="5" fill="#3676A1"/>
<circle cx="251.222" cy="5" r="5" fill="#3676A1"/>
<circle cx="235.833" cy="5" r="5" fill="#3676A1"/>
<circle cx="220.444" cy="5" r="5" fill="#3676A1"/>
<circle cx="205.056" cy="5" r="5" fill="#3676A1"/>
<circle cx="189.667" cy="5" r="5" fill="#3676A1"/>
<circle cx="174.278" cy="5" r="5" fill="#3676A1"/>
<circle cx="158.889" cy="5" r="5" fill="#3676A1"/>
<circle cx="143.5" cy="5" r="5" fill="#3676A1"/>
<circle cx="128.111" cy="5" r="5" fill="#3676A1"/>
<circle cx="112.722" cy="5" r="5" fill="#3676A1"/>
<circle cx="97.3335" cy="5" r="5" fill="#3676A1"/>
<circle cx="81.9443" cy="5" r="5" fill="#3676A1"/>
<circle cx="66.5557" cy="5" r="5" fill="#3676A1"/>
<circle cx="51.1665" cy="5" r="5" fill="#3676A1"/>
<circle cx="35.7778" cy="5" r="5" fill="#3676A1"/>
<circle cx="20.3887" cy="5" r="5" fill="#3676A1"/>
<circle cx="5" cy="5" r="5" fill="#3676A1"/>
<circle cx="559" cy="25" r="5" fill="#3676A1"/>
<circle cx="543.611" cy="25" r="5" fill="#3676A1"/>
<circle cx="528.222" cy="25" r="5" fill="#3676A1"/>
<circle cx="512.833" cy="25" r="5" fill="#3676A1"/>
<circle cx="497.444" cy="25" r="5" fill="#3676A1"/>
<circle cx="482.056" cy="25" r="5" fill="#3676A1"/>
<circle cx="466.667" cy="25" r="5" fill="#3676A1"/>
<circle cx="451.278" cy="25" r="5" fill="#3676A1"/>
<circle cx="435.889" cy="25" r="5" fill="#3676A1"/>
<circle cx="420.5" cy="25" r="5" fill="#3676A1"/>
<circle cx="405.111" cy="25" r="5" fill="#3676A1"/>
<circle cx="389.722" cy="25" r="5" fill="#3676A1"/>
<circle cx="374.333" cy="25" r="5" fill="#3676A1"/>
<circle cx="358.944" cy="25" r="5" fill="#3676A1"/>
<circle cx="343.556" cy="25" r="5" fill="#3676A1"/>
<circle cx="328.167" cy="25" r="5" fill="#3676A1"/>
<circle cx="312.778" cy="25" r="5" fill="#3676A1"/>
<circle cx="297.389" cy="25" r="5" fill="#3676A1"/>
<circle cx="282" cy="25" r="5" fill="#3676A1"/>
<circle cx="266.611" cy="25" r="5" fill="#3676A1"/>
<circle cx="251.222" cy="25" r="5" fill="#3676A1"/>
<circle cx="235.833" cy="25" r="5" fill="#3676A1"/>
<circle cx="220.444" cy="25" r="5" fill="#3676A1"/>
<circle cx="205.056" cy="25" r="5" fill="#3676A1"/>
<circle cx="189.667" cy="25" r="5" fill="#3676A1"/>
<circle cx="174.278" cy="25" r="5" fill="#3676A1"/>
<circle cx="158.889" cy="25" r="5" fill="#3676A1"/>
<circle cx="143.5" cy="25" r="5" fill="#3676A1"/>
<circle cx="128.111" cy="25" r="5" fill="#3676A1"/>
<circle cx="112.722" cy="25" r="5" fill="#3676A1"/>
<circle cx="97.3335" cy="25" r="5" fill="#3676A1"/>
<circle cx="81.9443" cy="25" r="5" fill="#3676A1"/>
<circle cx="66.5557" cy="25" r="5" fill="#3676A1"/>
<circle cx="51.1665" cy="25" r="5" fill="#3676A1"/>
<circle cx="35.7778" cy="25" r="5" fill="#3676A1"/>
<circle cx="20.3887" cy="25" r="5" fill="#3676A1"/>
<circle cx="5" cy="25" r="5" fill="#3676A1"/>
<circle cx="559" cy="45" r="5" fill="#3676A1"/>
<circle cx="543.611" cy="45" r="5" fill="#3676A1"/>
<circle cx="528.222" cy="45" r="5" fill="#3676A1"/>
<circle cx="512.833" cy="45" r="5" fill="#3676A1"/>
<circle cx="497.444" cy="45" r="5" fill="#3676A1"/>
<circle cx="482.056" cy="45" r="5" fill="#3676A1"/>
<circle cx="466.667" cy="45" r="5" fill="#3676A1"/>
<circle cx="451.278" cy="45" r="5" fill="#3676A1"/>
<circle cx="435.889" cy="45" r="5" fill="#3676A1"/>
<circle cx="420.5" cy="45" r="5" fill="#3676A1"/>
<circle cx="405.111" cy="45" r="5" fill="#3676A1"/>
<circle cx="389.722" cy="45" r="5" fill="#3676A1"/>
<circle cx="374.333" cy="45" r="5" fill="#3676A1"/>
<circle cx="358.944" cy="45" r="5" fill="#3676A1"/>
<circle cx="343.556" cy="45" r="5" fill="#3676A1"/>
<circle cx="328.167" cy="45" r="5" fill="#3676A1"/>
<circle cx="312.778" cy="45" r="5" fill="#3676A1"/>
<circle cx="297.389" cy="45" r="5" fill="#3676A1"/>
<circle cx="282" cy="45" r="5" fill="#3676A1"/>
<circle cx="266.611" cy="45" r="5" fill="#3676A1"/>
<circle cx="251.222" cy="45" r="5" fill="#3676A1"/>
<circle cx="235.833" cy="45" r="5" fill="#3676A1"/>
<circle cx="220.444" cy="45" r="5" fill="#3676A1"/>
<circle cx="205.056" cy="45" r="5" fill="#3676A1"/>
<circle cx="189.667" cy="45" r="5" fill="#3676A1"/>
<circle cx="174.278" cy="45" r="5" fill="#3676A1"/>
<circle cx="158.889" cy="45" r="5" fill="#3676A1"/>
<circle cx="143.5" cy="45" r="5" fill="#3676A1"/>
<circle cx="128.111" cy="45" r="5" fill="#3676A1"/>
<circle cx="112.722" cy="45" r="5" fill="#3676A1"/>
<circle cx="97.3335" cy="45" r="5" fill="#3676A1"/>
<circle cx="81.9443" cy="45" r="5" fill="#3676A1"/>
<circle cx="66.5557" cy="45" r="5" fill="#3676A1"/>
<circle cx="51.1665" cy="45" r="5" fill="#3676A1"/>
<circle cx="35.7778" cy="45" r="5" fill="#3676A1"/>
<circle cx="20.3887" cy="45" r="5" fill="#3676A1"/>
<circle cx="5" cy="45" r="5" fill="#3676A1"/>
<circle cx="559" cy="65" r="5" fill="#3676A1"/>
<circle cx="543.611" cy="65" r="5" fill="#3676A1"/>
<circle cx="528.222" cy="65" r="5" fill="#3676A1"/>
<circle cx="512.833" cy="65" r="5" fill="#3676A1"/>
<circle cx="497.444" cy="65" r="5" fill="#3676A1"/>
<circle cx="482.056" cy="65" r="5" fill="#3676A1"/>
<circle cx="466.667" cy="65" r="5" fill="#3676A1"/>
<circle cx="451.278" cy="65" r="5" fill="#3676A1"/>
<circle cx="435.889" cy="65" r="5" fill="#3676A1"/>
<circle cx="420.5" cy="65" r="5" fill="#3676A1"/>
<circle cx="405.111" cy="65" r="5" fill="#3676A1"/>
<circle cx="389.722" cy="65" r="5" fill="#3676A1"/>
<circle cx="374.333" cy="65" r="5" fill="#3676A1"/>
<circle cx="358.944" cy="65" r="5" fill="#3676A1"/>
<circle cx="343.556" cy="65" r="5" fill="#3676A1"/>
<circle cx="328.167" cy="65" r="5" fill="#3676A1"/>
<circle cx="312.778" cy="65" r="5" fill="#3676A1"/>
<circle cx="297.389" cy="65" r="5" fill="#3676A1"/>
<circle cx="282" cy="65" r="5" fill="#3676A1"/>
<circle cx="266.611" cy="65" r="5" fill="#3676A1"/>
<circle cx="251.222" cy="65" r="5" fill="#3676A1"/>
<circle cx="235.833" cy="65" r="5" fill="#3676A1"/>
<circle cx="220.444" cy="65" r="5" fill="#3676A1"/>
<circle cx="205.056" cy="65" r="5" fill="#3676A1"/>
<circle cx="189.667" cy="65" r="5" fill="#3676A1"/>
<circle cx="174.278" cy="65" r="5" fill="#3676A1"/>
<circle cx="158.889" cy="65" r="5" fill="#3676A1"/>
<circle cx="143.5" cy="65" r="5" fill="#3676A1"/>
<circle cx="128.111" cy="65" r="5" fill="#3676A1"/>
<circle cx="112.722" cy="65" r="5" fill="#3676A1"/>
<circle cx="97.3335" cy="65" r="5" fill="#3676A1"/>
<circle cx="81.9443" cy="65" r="5" fill="#3676A1"/>
<circle cx="66.5557" cy="65" r="5" fill="#3676A1"/>
<circle cx="51.1665" cy="65" r="5" fill="#3676A1"/>
<circle cx="35.7778" cy="65" r="5" fill="#3676A1"/>
<circle cx="20.3887" cy="65" r="5" fill="#3676A1"/>
<circle cx="5" cy="65" r="5" fill="#3676A1"/>
<circle cx="559" cy="85" r="5" fill="#3676A1"/>
<circle cx="543.611" cy="85" r="5" fill="#3676A1"/>
<circle cx="528.222" cy="85" r="5" fill="#3676A1"/>
<circle cx="512.833" cy="85" r="5" fill="#3676A1"/>
<circle cx="497.444" cy="85" r="5" fill="#3676A1"/>
<circle cx="482.056" cy="85" r="5" fill="#3676A1"/>
<circle cx="466.667" cy="85" r="5" fill="#3676A1"/>
<circle cx="451.278" cy="85" r="5" fill="#3676A1"/>
<circle cx="435.889" cy="85" r="5" fill="#3676A1"/>
<circle cx="420.5" cy="85" r="5" fill="#3676A1"/>
<circle cx="405.111" cy="85" r="5" fill="#3676A1"/>
<circle cx="389.722" cy="85" r="5" fill="#3676A1"/>
<circle cx="374.333" cy="85" r="5" fill="#3676A1"/>
<circle cx="358.944" cy="85" r="5" fill="#3676A1"/>
<circle cx="343.556" cy="85" r="5" fill="#3676A1"/>
<circle cx="328.167" cy="85" r="5" fill="#3676A1"/>
<circle cx="312.778" cy="85" r="5" fill="#3676A1"/>
<circle cx="297.389" cy="85" r="5" fill="#3676A1"/>
<circle cx="282" cy="85" r="5" fill="#3676A1"/>
<circle cx="266.611" cy="85" r="5" fill="#3676A1"/>
<circle cx="251.222" cy="85" r="5" fill="#3676A1"/>
<circle cx="235.833" cy="85" r="5" fill="#3676A1"/>
<circle cx="220.444" cy="85" r="5" fill="#3676A1"/>
<circle cx="205.056" cy="85" r="5" fill="#3676A1"/>
<circle cx="189.667" cy="85" r="5" fill="#3676A1"/>
<circle cx="174.278" cy="85" r="5" fill="#3676A1"/>
<circle cx="158.889" cy="85" r="5" fill="#3676A1"/>
<circle cx="143.5" cy="85" r="5" fill="#3676A1"/>
<circle cx="128.111" cy="85" r="5" fill="#3676A1"/>
<circle cx="112.722" cy="85" r="5" fill="#3676A1"/>
<circle cx="97.3335" cy="85" r="5" fill="#3676A1"/>
<circle cx="81.9443" cy="85" r="5" fill="#3676A1"/>
<circle cx="66.5557" cy="85" r="5" fill="#3676A1"/>
<circle cx="51.1665" cy="85" r="5" fill="#3676A1"/>
<circle cx="35.7778" cy="85" r="5" fill="#3676A1"/>
<circle cx="20.3887" cy="85" r="5" fill="#3676A1"/>
<circle cx="5" cy="85" r="5" fill="#3676A1"/>
<circle cx="559" cy="105" r="5" fill="#3676A1"/>
<circle cx="543.611" cy="105" r="5" fill="#3676A1"/>
<circle cx="528.222" cy="105" r="5" fill="#3676A1"/>
<circle cx="512.833" cy="105" r="5" fill="#3676A1"/>
<circle cx="497.444" cy="105" r="5" fill="#3676A1"/>
<circle cx="482.056" cy="105" r="5" fill="#3676A1"/>
<circle cx="466.667" cy="105" r="5" fill="#3676A1"/>
<circle cx="451.278" cy="105" r="5" fill="#3676A1"/>
<circle cx="435.889" cy="105" r="5" fill="#3676A1"/>
<circle cx="420.5" cy="105" r="5" fill="#3676A1"/>
<circle cx="405.111" cy="105" r="5" fill="#3676A1"/>
<circle cx="389.722" cy="105" r="5" fill="#3676A1"/>
<circle cx="374.333" cy="105" r="5" fill="#3676A1"/>
<circle cx="358.944" cy="105" r="5" fill="#3676A1"/>
<circle cx="343.556" cy="105" r="5" fill="#3676A1"/>
<circle cx="328.167" cy="105" r="5" fill="#3676A1"/>
<circle cx="312.778" cy="105" r="5" fill="#3676A1"/>
<circle cx="297.389" cy="105" r="5" fill="#3676A1"/>
<circle cx="282" cy="105" r="5" fill="#3676A1"/>
<circle cx="266.611" cy="105" r="5" fill="#3676A1"/>
<circle cx="251.222" cy="105" r="5" fill="#3676A1"/>
<circle cx="235.833" cy="105" r="5" fill="#3676A1"/>
<circle cx="220.444" cy="105" r="5" fill="#3676A1"/>
<circle cx="205.056" cy="105" r="5" fill="#3676A1"/>
<circle cx="189.667" cy="105" r="5" fill="#3676A1"/>
<circle cx="174.278" cy="105" r="5" fill="#3676A1"/>
<circle cx="158.889" cy="105" r="5" fill="#3676A1"/>
<circle cx="143.5" cy="105" r="5" fill="#3676A1"/>
<circle cx="128.111" cy="105" r="5" fill="#3676A1"/>
<circle cx="112.722" cy="105" r="5" fill="#3676A1"/>
<circle cx="97.3335" cy="105" r="5" fill="#3676A1"/>
<circle cx="81.9443" cy="105" r="5" fill="#3676A1"/>
<circle cx="66.5557" cy="105" r="5" fill="#3676A1"/>
<circle cx="51.1665" cy="105" r="5" fill="#3676A1"/>
<circle cx="35.7778" cy="105" r="5" fill="#3676A1"/>
<circle cx="20.3887" cy="105" r="5" fill="#3676A1"/>
<circle cx="5" cy="105" r="5" fill="#3676A1"/>
<circle cx="559" cy="125" r="5" fill="#3676A1"/>
<circle cx="543.611" cy="125" r="5" fill="#3676A1"/>
<circle cx="528.222" cy="125" r="5" fill="#3676A1"/>
<circle cx="512.833" cy="125" r="5" fill="#3676A1"/>
<circle cx="497.444" cy="125" r="5" fill="#3676A1"/>
<circle cx="482.056" cy="125" r="5" fill="#3676A1"/>
<circle cx="466.667" cy="125" r="5" fill="#3676A1"/>
<circle cx="451.278" cy="125" r="5" fill="#3676A1"/>
<circle cx="435.889" cy="125" r="5" fill="#3676A1"/>
<circle cx="420.5" cy="125" r="5" fill="#3676A1"/>
<circle cx="405.111" cy="125" r="5" fill="#3676A1"/>
<circle cx="389.722" cy="125" r="5" fill="#3676A1"/>
<circle cx="374.333" cy="125" r="5" fill="#3676A1"/>
<circle cx="358.944" cy="125" r="5" fill="#3676A1"/>
<circle cx="343.556" cy="125" r="5" fill="#3676A1"/>
<circle cx="328.167" cy="125" r="5" fill="#3676A1"/>
<circle cx="312.778" cy="125" r="5" fill="#3676A1"/>
<circle cx="297.389" cy="125" r="5" fill="#3676A1"/>
<circle cx="282" cy="125" r="5" fill="#3676A1"/>
<circle cx="266.611" cy="125" r="5" fill="#3676A1"/>
<circle cx="251.222" cy="125" r="5" fill="#3676A1"/>
<circle cx="235.833" cy="125" r="5" fill="#3676A1"/>
<circle cx="220.444" cy="125" r="5" fill="#3676A1"/>
<circle cx="205.056" cy="125" r="5" fill="#3676A1"/>
<circle cx="189.667" cy="125" r="5" fill="#3676A1"/>
<circle cx="174.278" cy="125" r="5" fill="#3676A1"/>
<circle cx="158.889" cy="125" r="5" fill="#3676A1"/>
<circle cx="143.5" cy="125" r="5" fill="#3676A1"/>
<circle cx="128.111" cy="125" r="5" fill="#3676A1"/>
<circle cx="112.722" cy="125" r="5" fill="#3676A1"/>
<circle cx="97.3335" cy="125" r="5" fill="#3676A1"/>
<circle cx="81.9443" cy="125" r="5" fill="#3676A1"/>
<circle cx="66.5557" cy="125" r="5" fill="#3676A1"/>
<circle cx="51.1665" cy="125" r="5" fill="#3676A1"/>
<circle cx="35.7778" cy="125" r="5" fill="#3676A1"/>
<circle cx="20.3887" cy="125" r="5" fill="#3676A1"/>
<circle cx="5" cy="125" r="5" fill="#3676A1"/>
<circle cx="559" cy="145" r="5" fill="#3676A1" fill-opacity="0.25"/>
<circle cx="543.611" cy="145" r="5" fill="#3676A1" fill-opacity="0.25"/>
<circle cx="528.222" cy="145" r="5" fill="#3676A1" fill-opacity="0.25"/>
<circle cx="512.833" cy="145" r="5" fill="#3676A1" fill-opacity="0.25"/>
<circle cx="497.444" cy="145" r="5" fill="#3676A1" fill-opacity="0.25"/>
<circle cx="482.056" cy="145" r="5" fill="#3676A1" fill-opacity="0.25"/>
<circle cx="466.667" cy="145" r="5" fill="#3676A1" fill-opacity="0.25"/>
<circle cx="451.278" cy="145" r="5" fill="#3676A1" fill-opacity="0.25"/>
<circle cx="435.889" cy="145" r="5" fill="#3676A1" fill-opacity="0.25"/>
<circle cx="420.5" cy="145" r="5" fill="#3676A1" fill-opacity="0.25"/>
<circle cx="405.111" cy="145" r="5" fill="#3676A1" fill-opacity="0.25"/>
<circle cx="389.722" cy="145" r="5" fill="#3676A1" fill-opacity="0.25"/>
<circle cx="374.333" cy="145" r="5" fill="#3676A1" fill-opacity="0.25"/>
<circle cx="358.944" cy="145" r="5" fill="#3676A1" fill-opacity="0.25"/>
<circle cx="343.556" cy="145" r="5" fill="#3676A1" fill-opacity="0.25"/>
<circle cx="328.167" cy="145" r="5" fill="#3676A1" fill-opacity="0.25"/>
<circle cx="312.778" cy="145" r="5" fill="#3676A1" fill-opacity="0.25"/>
<circle cx="297.389" cy="145" r="5" fill="#3676A1" fill-opacity="0.25"/>
<circle cx="282" cy="145" r="5" fill="#3676A1" fill-opacity="0.25"/>
<circle cx="266.611" cy="145" r="5" fill="#3676A1" fill-opacity="0.25"/>
<circle cx="251.222" cy="145" r="5" fill="#3676A1" fill-opacity="0.25"/>
<circle cx="235.833" cy="145" r="5" fill="#3676A1" fill-opacity="0.25"/>
<circle cx="220.444" cy="145" r="5" fill="#3676A1" fill-opacity="0.25"/>
<circle cx="205.056" cy="145" r="5" fill="#3676A1" fill-opacity="0.25"/>
<circle cx="189.667" cy="145" r="5" fill="#3676A1" fill-opacity="0.25"/>
<circle cx="174.278" cy="145" r="5" fill="#3676A1" fill-opacity="0.25"/>
<circle cx="158.889" cy="145" r="5" fill="#3676A1" fill-opacity="0.25"/>
<circle cx="143.5" cy="145" r="5" fill="#3676A1" fill-opacity="0.25"/>
<circle cx="128.111" cy="145" r="5" fill="#3676A1" fill-opacity="0.25"/>
<circle cx="112.722" cy="145" r="5" fill="#3676A1" fill-opacity="0.25"/>
<circle cx="97.3335" cy="145" r="5" fill="#3676A1" fill-opacity="0.25"/>
<circle cx="81.9443" cy="145" r="5" fill="#3676A1" fill-opacity="0.25"/>
<circle cx="66.5557" cy="145" r="5" fill="#3676A1" fill-opacity="0.25"/>
<circle cx="51.1665" cy="145" r="5" fill="#3676A1" fill-opacity="0.25"/>
<circle cx="35.7778" cy="145" r="5" fill="#3676A1" fill-opacity="0.25"/>
<circle cx="20.3887" cy="145" r="5" fill="#3676A1" fill-opacity="0.25"/>
<circle cx="5" cy="145" r="5" fill="#3676A1"/>
</svg>
