<svg width="21" height="20" viewBox="0 0 21 20" fill="none" xmlns="http://www.w3.org/2000/svg">
<path d="M18.5744 0H2.21076C1.20621 0 0.392578 0.813636 0.392578 1.81818V18.1818C0.392578 19.1864 1.20621 20 2.21076 20H18.5744C19.5789 20 20.3926 19.1864 20.3926 18.1818V1.81818C20.3926 0.813636 19.5789 0 18.5744 0ZM6.7144 16.3636H4.03258V7.73455H6.7144V16.3636ZM5.34621 6.50091C4.48167 6.50091 3.78258 5.8 3.78258 4.93727C3.78258 4.07455 4.48258 3.37455 5.34621 3.37455C6.20803 3.37455 6.90894 4.07545 6.90894 4.93727C6.90894 5.8 6.20803 6.50091 5.34621 6.50091ZM16.7599 16.3636H14.0799V12.1673C14.0799 11.1664 14.0617 9.87909 12.6862 9.87909C11.2908 9.87909 11.0762 10.9691 11.0762 12.0945V16.3636H8.39621V7.73455H10.9689V8.91364H11.0053C11.3635 8.23546 12.238 7.52 13.5426 7.52C16.258 7.52 16.7599 9.30727 16.7599 11.6309V16.3636Z" fill="white"/>
</svg>
