<svg width="1152" height="1285" viewBox="0 0 1152 1285" fill="none" xmlns="http://www.w3.org/2000/svg">
<path d="M1090.17 0.00129568C1102.34 -0.0777076 1114.25 3.4578 1124.41 10.1595C1134.56 16.8613 1142.5 26.4274 1147.21 37.6449C1151.92 48.8625 1153.19 61.2263 1150.87 73.1686C1148.54 85.1108 1142.72 96.0938 1134.15 104.725C1125.57 113.356 1114.63 119.246 1102.7 121.649C1090.78 124.052 1078.4 122.859 1067.16 118.221C1055.91 113.584 1046.29 105.711 1039.52 95.6001C1032.76 85.4896 1029.14 73.5972 1029.14 61.4306C1029.09 53.3825 1030.63 45.4034 1033.67 37.9528C1036.72 30.5021 1041.2 23.727 1046.88 18.0175C1052.55 12.308 1059.29 7.77681 1066.72 4.68483C1074.15 1.59284 1082.12 0.00112377 1090.17 0.00129568Z" fill="url(#paint0_radial_639_138911)"/>
<path d="M884.344 0.00129568C896.51 -0.0777076 908.426 3.4578 918.581 10.1595C928.735 16.8613 936.671 26.4274 941.381 37.6449C946.092 48.8625 947.366 61.2263 945.04 73.1686C942.715 85.1108 936.896 96.0938 928.321 104.725C919.746 113.356 908.802 119.246 896.875 121.649C884.948 124.052 872.576 122.859 861.328 118.221C850.08 113.584 840.462 105.711 833.695 95.6001C826.927 85.4896 823.314 73.5972 823.313 61.4306C823.261 53.3825 824.801 45.4034 827.844 37.9528C830.888 30.5021 835.375 23.727 841.047 18.0175C846.72 12.308 853.466 7.77681 860.896 4.68483C868.327 1.59284 876.296 0.00112377 884.344 0.00129568Z" fill="url(#paint1_radial_639_138911)"/>
<path d="M678.516 0.00129568C690.682 -0.0777076 702.598 3.4578 712.752 10.1595C722.906 16.8613 730.842 26.4274 735.553 37.6449C740.263 48.8625 741.537 61.2263 739.212 73.1686C736.887 85.1108 731.068 96.0938 722.493 104.725C713.918 113.356 702.973 119.246 691.046 121.649C679.12 124.052 666.748 122.859 655.5 118.221C644.252 113.584 634.634 105.711 627.867 95.6001C621.099 85.4896 617.486 73.5972 617.485 61.4306C617.433 53.3825 618.973 45.4034 622.016 37.9528C625.06 30.5021 629.547 23.727 635.219 18.0175C640.892 12.308 647.637 7.77681 655.068 4.68483C662.499 1.59284 670.468 0.00112377 678.516 0.00129568Z" fill="url(#paint2_radial_639_138911)"/>
<path d="M472.688 0.00129568C484.854 -0.0777076 496.77 3.4578 506.924 10.1595C517.079 16.8613 525.015 26.4274 529.725 37.6449C534.436 48.8625 535.709 61.2263 533.384 73.1686C531.059 85.1108 525.24 96.0938 516.665 104.725C508.09 113.356 497.146 119.246 485.219 121.649C473.292 124.052 460.92 122.859 449.672 118.221C438.424 113.584 428.806 105.711 422.038 95.6001C415.27 85.4896 411.657 73.5972 411.657 61.4306C411.657 45.2074 418.074 29.6428 429.508 18.1339C440.942 6.62511 456.465 0.106641 472.688 0.00129568Z" fill="url(#paint3_radial_639_138911)"/>
<path d="M266.86 0.00129568C279.026 -0.0777076 290.942 3.4578 301.096 10.1595C311.25 16.8613 319.186 26.4274 323.896 37.6449C328.607 48.8625 329.881 61.2263 327.556 73.1686C325.231 85.1108 319.412 96.0938 310.837 104.725C302.262 113.356 291.317 119.246 279.39 121.649C267.463 124.052 255.092 122.859 243.844 118.221C232.596 113.584 222.978 105.711 216.21 95.6001C209.443 85.4896 205.829 73.5972 205.829 61.4306C205.829 45.2074 212.246 29.6428 223.68 18.1339C235.114 6.62511 250.637 0.106641 266.86 0.00129568Z" fill="url(#paint4_radial_639_138911)"/>
<path d="M61.0316 0.00147879C73.1979 -0.0775245 85.1136 3.45799 95.268 10.1597C105.422 16.8615 113.358 26.4276 118.069 37.6451C122.779 48.8627 124.053 61.2264 121.728 73.1687C119.403 85.111 113.584 96.0939 105.009 104.725C96.4339 113.356 85.4892 119.246 73.5623 121.649C61.6354 124.052 49.2636 122.859 38.0156 118.221C26.7676 113.584 17.15 105.711 10.3823 95.6003C3.61452 85.4898 0.00147722 73.5973 0.00122072 61.4308C0.000878683 45.2076 6.4181 29.643 17.8522 18.1341C29.2863 6.62529 44.8088 0.106824 61.0316 0.00147879Z" fill="url(#paint5_radial_639_138911)"/>
<path d="M472.688 193.863C484.776 193.863 496.591 197.453 506.636 204.177C516.681 210.9 524.503 220.456 529.11 231.631C533.718 242.806 534.903 255.098 532.515 266.947C530.128 278.797 524.275 289.67 515.7 298.189C507.125 306.709 496.213 312.489 484.348 314.799C472.483 317.109 460.199 315.843 449.055 311.163C437.91 306.482 428.406 298.598 421.748 288.509C415.09 278.42 411.578 266.582 411.657 254.494C411.657 238.308 418.087 222.785 429.533 211.339C440.978 199.894 456.502 193.464 472.688 193.464" fill="url(#paint6_radial_639_138911)"/>
<path d="M61.0317 193.863C73.1193 193.863 84.9346 197.453 94.9795 204.177C105.024 210.9 112.846 220.456 117.454 231.631C122.061 242.806 123.246 255.098 120.859 266.947C118.471 278.797 112.619 289.67 104.044 298.189C95.4685 306.709 84.5566 312.489 72.6917 314.799C60.8269 317.109 48.5433 315.843 37.3987 311.163C26.254 306.482 16.7502 298.598 10.0923 288.509C3.43442 278.42 -0.0776998 266.582 0.00130415 254.494C0.00130415 238.308 6.43128 222.785 17.8767 211.339C29.3221 199.894 44.8454 193.464 61.0317 193.464" fill="url(#paint7_radial_639_138911)"/>
<path d="M266.86 193.863C278.947 193.863 290.762 197.453 300.807 204.177C310.852 210.9 318.674 220.456 323.281 231.631C327.889 242.806 329.074 255.098 326.686 266.947C324.299 278.797 318.447 289.67 309.872 298.189C301.296 306.709 290.384 312.489 278.52 314.799C266.655 317.109 254.371 315.843 243.227 311.163C232.082 306.482 222.578 298.598 215.92 288.509C209.262 278.42 205.75 266.582 205.829 254.494C205.829 238.308 212.259 222.785 223.704 211.339C235.15 199.894 250.673 193.464 266.86 193.464" fill="url(#paint8_radial_639_138911)"/>
<path d="M1090.17 193.862C1102.26 193.863 1114.07 197.452 1124.12 204.176C1134.16 210.9 1141.99 220.456 1146.59 231.631C1151.2 242.806 1152.39 255.097 1150 266.947C1147.61 278.796 1141.76 289.67 1133.18 298.189C1124.61 306.709 1113.7 312.489 1101.83 314.799C1089.97 317.109 1077.68 315.843 1066.54 311.163C1055.39 306.482 1045.89 298.598 1039.23 288.509C1032.57 278.42 1029.06 266.581 1029.14 254.494C1029.09 246.465 1030.63 238.505 1033.68 231.076C1036.73 223.648 1041.22 216.899 1046.9 211.221C1052.58 205.543 1059.33 201.05 1066.75 198.001C1074.18 194.953 1082.14 193.411 1090.17 193.464" fill="url(#paint9_radial_639_138911)"/>
<path d="M884.344 193.862C896.432 193.863 908.247 197.452 918.292 204.176C928.337 210.9 936.159 220.456 940.766 231.631C945.373 242.806 946.558 255.097 944.171 266.947C941.784 278.796 935.931 289.67 927.356 298.189C918.781 306.709 907.869 312.489 896.004 314.799C884.139 317.109 871.856 315.843 860.711 311.163C849.566 306.482 840.062 298.598 833.405 288.509C826.747 278.42 823.235 266.581 823.314 254.494C823.261 246.465 824.803 238.505 827.851 231.076C830.9 223.648 835.393 216.899 841.071 211.221C846.749 205.543 853.498 201.05 860.926 198.001C868.355 194.953 876.314 193.411 884.344 193.464" fill="url(#paint10_radial_639_138911)"/>
<path d="M678.516 193.862C690.604 193.863 702.419 197.452 712.464 204.176C722.509 210.9 730.331 220.456 734.938 231.631C739.545 242.806 740.73 255.097 738.343 266.947C735.955 278.796 730.103 289.67 721.528 298.189C712.953 306.709 702.041 312.489 690.176 314.799C678.311 317.109 666.028 315.843 654.883 311.163C643.738 306.482 634.234 298.598 627.577 288.509C620.919 278.42 617.406 266.581 617.485 254.494C617.432 246.465 618.975 238.505 622.023 231.076C625.071 223.648 629.565 216.899 635.243 211.221C640.921 205.543 647.67 201.05 655.098 198.001C662.526 194.953 670.486 193.411 678.516 193.464" fill="url(#paint11_radial_639_138911)"/>
<path d="M678.516 387.325C690.587 387.325 702.386 390.904 712.423 397.61C722.459 404.316 730.281 413.848 734.901 425C739.52 436.152 740.728 448.423 738.374 460.261C736.019 472.1 730.206 482.975 721.671 491.51C713.136 500.045 702.261 505.858 690.422 508.213C678.584 510.568 666.312 509.359 655.161 504.74C644.009 500.121 634.477 492.298 627.771 482.262C621.065 472.225 617.485 460.426 617.485 448.355C617.432 440.326 618.975 432.366 622.023 424.937C625.071 417.509 629.565 410.76 635.243 405.082C640.921 399.404 647.67 394.911 655.098 391.862C662.526 388.814 670.486 387.272 678.516 387.325Z" fill="url(#paint12_radial_639_138911)"/>
<path d="M472.688 387.326C484.758 387.326 496.558 390.905 506.594 397.611C516.631 404.317 524.453 413.849 529.073 425.001C533.692 436.153 534.9 448.424 532.545 460.263C530.191 472.101 524.378 482.976 515.843 491.511C507.307 500.046 496.433 505.859 484.594 508.214C472.755 510.569 460.484 509.36 449.332 504.741C438.18 500.122 428.649 492.299 421.943 482.263C415.237 472.226 411.657 460.427 411.657 448.356C411.657 432.17 418.087 416.646 429.533 405.201C440.978 393.756 456.501 387.326 472.688 387.326Z" fill="url(#paint13_radial_639_138911)"/>
<path d="M678.516 580.787C690.699 580.709 702.631 584.254 712.793 590.974C722.956 597.693 730.892 607.283 735.59 618.524C740.289 629.765 741.539 642.149 739.182 654.102C736.824 666.055 730.966 677.038 722.351 685.653C713.736 694.268 702.753 700.126 690.8 702.484C678.847 704.841 666.463 703.591 655.222 698.892C643.981 694.194 634.391 686.258 627.672 676.095C620.952 665.933 617.407 654.001 617.485 641.818C617.432 633.788 618.975 625.828 622.023 618.4C625.071 610.971 629.565 604.222 635.243 598.545C640.921 592.867 647.67 588.373 655.098 585.325C662.527 582.277 670.486 580.734 678.516 580.787Z" fill="url(#paint14_radial_639_138911)"/>
<path d="M472.687 580.787C484.871 580.709 496.802 584.254 506.965 590.974C517.128 597.693 525.063 607.283 529.762 618.524C534.461 629.765 535.711 642.149 533.353 654.102C530.996 666.055 525.137 677.038 516.522 685.653C507.907 694.268 496.925 700.126 484.972 702.484C473.019 704.841 460.634 703.591 449.394 698.892C438.153 694.194 428.563 686.258 421.843 676.095C415.124 665.933 411.578 654.001 411.657 641.818C411.657 633.803 413.236 625.867 416.303 618.462C419.37 611.058 423.865 604.33 429.533 598.663C435.2 592.996 441.928 588.5 449.332 585.433C456.737 582.366 464.673 580.787 472.687 580.787Z" fill="url(#paint15_radial_639_138911)"/>
<path d="M678.516 773.053C690.699 772.975 702.631 776.52 712.793 783.24C722.956 789.959 730.892 799.549 735.59 810.79C740.289 822.031 741.539 834.415 739.182 846.369C736.824 858.322 730.966 869.304 722.351 877.919C713.736 886.534 702.753 892.393 690.8 894.75C678.847 897.108 666.463 895.858 655.222 891.159C643.981 886.46 634.391 878.525 627.672 868.362C620.952 858.199 617.407 846.267 617.485 834.084C617.432 826.055 618.975 818.095 622.023 810.666C625.071 803.238 629.565 796.489 635.243 790.811C640.921 785.133 647.67 780.639 655.098 777.591C662.527 774.543 670.486 773 678.516 773.053Z" fill="url(#paint16_radial_639_138911)"/>
<path d="M472.687 773.053C484.871 772.974 496.802 776.52 506.965 783.24C517.128 789.959 525.063 799.549 529.762 810.79C534.461 822.031 535.711 834.415 533.353 846.368C530.996 858.322 525.137 869.304 516.522 877.919C507.907 886.534 496.925 892.392 484.972 894.75C473.019 897.108 460.634 895.857 449.394 891.159C438.153 886.46 428.563 878.525 421.843 868.362C415.124 858.199 411.578 846.267 411.657 834.084C411.657 817.898 418.087 802.374 429.533 790.929C440.978 779.483 456.501 773.053 472.687 773.053Z" fill="url(#paint17_radial_639_138911)"/>
<path d="M678.516 967.713C690.699 967.634 702.63 971.18 712.793 977.899C722.956 984.619 730.891 994.209 735.59 1005.45C740.289 1016.69 741.539 1029.08 739.182 1041.03C736.824 1052.98 730.965 1063.96 722.35 1072.58C713.735 1081.19 702.753 1087.05 690.8 1089.41C678.847 1091.77 666.463 1090.52 655.222 1085.82C643.981 1081.12 634.391 1073.18 627.672 1063.02C620.952 1052.86 617.407 1040.93 617.485 1028.74C617.485 1012.56 623.915 997.034 635.361 985.589C646.806 974.143 662.33 967.713 678.516 967.713Z" fill="url(#paint18_radial_639_138911)"/>
<path d="M472.687 967.713C484.871 967.634 496.802 971.18 506.965 977.899C517.128 984.619 525.063 994.209 529.762 1005.45C534.461 1016.69 535.711 1029.08 533.353 1041.03C530.996 1052.98 525.137 1063.96 516.522 1072.58C507.907 1081.19 496.925 1087.05 484.972 1089.41C473.019 1091.77 460.634 1090.52 449.394 1085.82C438.153 1081.12 428.563 1073.18 421.843 1063.02C415.124 1052.86 411.578 1040.93 411.657 1028.74C411.762 1012.59 418.225 997.127 429.648 985.704C441.071 974.281 456.533 967.818 472.687 967.713Z" fill="url(#paint19_radial_639_138911)"/>
<path d="M678.516 1161.17C690.699 1161.1 702.63 1164.64 712.793 1171.36C722.956 1178.08 730.891 1187.67 735.59 1198.91C740.289 1210.15 741.539 1222.54 739.182 1234.49C736.824 1246.44 730.965 1257.42 722.35 1266.04C713.735 1274.65 702.753 1280.51 690.8 1282.87C678.847 1285.23 666.463 1283.98 655.222 1279.28C643.981 1274.58 634.391 1266.64 627.672 1256.48C620.952 1246.32 617.407 1234.39 617.485 1222.2C617.485 1214.19 619.064 1206.25 622.131 1198.85C625.198 1191.44 629.694 1184.72 635.361 1179.05C641.028 1173.38 647.756 1168.89 655.16 1165.82C662.565 1162.75 670.501 1161.17 678.516 1161.17Z" fill="url(#paint20_radial_639_138911)"/>
<path d="M472.687 1161.17C484.871 1161.1 496.802 1164.64 506.965 1171.36C517.128 1178.08 525.063 1187.67 529.762 1198.91C534.461 1210.15 535.711 1222.54 533.353 1234.49C530.996 1246.44 525.137 1257.42 516.522 1266.04C507.907 1274.65 496.925 1280.51 484.972 1282.87C473.019 1285.23 460.634 1283.98 449.394 1279.28C438.153 1274.58 428.563 1266.64 421.843 1256.48C415.124 1246.32 411.578 1234.39 411.657 1222.2C411.762 1206.05 418.225 1190.59 429.648 1179.16C441.071 1167.74 456.533 1161.28 472.687 1161.17Z" fill="url(#paint21_radial_639_138911)"/>
<defs>
<radialGradient id="paint0_radial_639_138911" cx="0" cy="0" r="1" gradientUnits="userSpaceOnUse" gradientTransform="translate(1144.72 -9.36028) rotate(112.273) scale(142.879 138.876)">
<stop stop-color="#60AEE1"/>
<stop offset="1" stop-color="#60AEE1" stop-opacity="0"/>
</radialGradient>
<radialGradient id="paint1_radial_639_138911" cx="0" cy="0" r="1" gradientUnits="userSpaceOnUse" gradientTransform="translate(938.896 -9.36028) rotate(112.273) scale(142.879 138.877)">
<stop stop-color="#60AEE1"/>
<stop offset="1" stop-color="#60AEE1" stop-opacity="0"/>
</radialGradient>
<radialGradient id="paint2_radial_639_138911" cx="0" cy="0" r="1" gradientUnits="userSpaceOnUse" gradientTransform="translate(733.067 -9.36028) rotate(112.273) scale(142.879 138.876)">
<stop stop-color="#60AEE1"/>
<stop offset="1" stop-color="#60AEE1" stop-opacity="0"/>
</radialGradient>
<radialGradient id="paint3_radial_639_138911" cx="0" cy="0" r="1" gradientUnits="userSpaceOnUse" gradientTransform="translate(527.24 -9.36028) rotate(112.273) scale(142.879 138.876)">
<stop stop-color="#60AEE1"/>
<stop offset="1" stop-color="#60AEE1" stop-opacity="0"/>
</radialGradient>
<radialGradient id="paint4_radial_639_138911" cx="0" cy="0" r="1" gradientUnits="userSpaceOnUse" gradientTransform="translate(321.411 -9.36028) rotate(112.272) scale(142.879 138.875)">
<stop stop-color="#60AEE1"/>
<stop offset="1" stop-color="#60AEE1" stop-opacity="0"/>
</radialGradient>
<radialGradient id="paint5_radial_639_138911" cx="0" cy="0" r="1" gradientUnits="userSpaceOnUse" gradientTransform="translate(115.583 -9.3601) rotate(112.272) scale(142.879 138.875)">
<stop stop-color="#60AEE1"/>
<stop offset="1" stop-color="#60AEE1" stop-opacity="0"/>
</radialGradient>
<radialGradient id="paint6_radial_639_138911" cx="0" cy="0" r="1" gradientUnits="userSpaceOnUse" gradientTransform="translate(526.488 184.134) rotate(112.207) scale(142.349 138.038)">
<stop stop-color="#60AEE1"/>
<stop offset="1" stop-color="#60AEE1" stop-opacity="0"/>
</radialGradient>
<radialGradient id="paint7_radial_639_138911" cx="0" cy="0" r="1" gradientUnits="userSpaceOnUse" gradientTransform="translate(114.831 184.134) rotate(112.207) scale(142.348 138.038)">
<stop stop-color="#60AEE1"/>
<stop offset="1" stop-color="#60AEE1" stop-opacity="0"/>
</radialGradient>
<radialGradient id="paint8_radial_639_138911" cx="0" cy="0" r="1" gradientUnits="userSpaceOnUse" gradientTransform="translate(320.659 184.134) rotate(112.207) scale(142.348 138.038)">
<stop stop-color="#60AEE1"/>
<stop offset="1" stop-color="#60AEE1" stop-opacity="0"/>
</radialGradient>
<radialGradient id="paint9_radial_639_138911" cx="0" cy="0" r="1" gradientUnits="userSpaceOnUse" gradientTransform="translate(1143.97 184.132) rotate(112.207) scale(142.35 138.038)">
<stop stop-color="#60AEE1"/>
<stop offset="1" stop-color="#60AEE1" stop-opacity="0"/>
</radialGradient>
<radialGradient id="paint10_radial_639_138911" cx="0" cy="0" r="1" gradientUnits="userSpaceOnUse" gradientTransform="translate(938.144 184.132) rotate(112.207) scale(142.35 138.038)">
<stop stop-color="#60AEE1"/>
<stop offset="1" stop-color="#60AEE1" stop-opacity="0"/>
</radialGradient>
<radialGradient id="paint11_radial_639_138911" cx="0" cy="0" r="1" gradientUnits="userSpaceOnUse" gradientTransform="translate(732.316 184.132) rotate(112.207) scale(142.35 138.038)">
<stop stop-color="#60AEE1"/>
<stop offset="1" stop-color="#60AEE1" stop-opacity="0"/>
</radialGradient>
<radialGradient id="paint12_radial_639_138911" cx="0" cy="0" r="1" gradientUnits="userSpaceOnUse" gradientTransform="translate(732.317 378.024) rotate(112.272) scale(141.953 137.975)">
<stop stop-color="#60AEE1"/>
<stop offset="1" stop-color="#60AEE1" stop-opacity="0"/>
</radialGradient>
<radialGradient id="paint13_radial_639_138911" cx="0" cy="0" r="1" gradientUnits="userSpaceOnUse" gradientTransform="translate(526.489 378.026) rotate(112.272) scale(141.951 137.973)">
<stop stop-color="#60AEE1"/>
<stop offset="1" stop-color="#60AEE1" stop-opacity="0"/>
</radialGradient>
<radialGradient id="paint14_radial_639_138911" cx="0" cy="0" r="1" gradientUnits="userSpaceOnUse" gradientTransform="translate(733.066 571.426) rotate(112.272) scale(142.879 138.875)">
<stop stop-color="#60AEE1"/>
<stop offset="1" stop-color="#60AEE1" stop-opacity="0"/>
</radialGradient>
<radialGradient id="paint15_radial_639_138911" cx="0" cy="0" r="1" gradientUnits="userSpaceOnUse" gradientTransform="translate(527.238 571.426) rotate(112.272) scale(142.879 138.875)">
<stop stop-color="#60AEE1"/>
<stop offset="1" stop-color="#60AEE1" stop-opacity="0"/>
</radialGradient>
<radialGradient id="paint16_radial_639_138911" cx="0" cy="0" r="1" gradientUnits="userSpaceOnUse" gradientTransform="translate(733.066 763.692) rotate(112.272) scale(142.88 138.875)">
<stop stop-color="#60AEE1"/>
<stop offset="1" stop-color="#60AEE1" stop-opacity="0"/>
</radialGradient>
<radialGradient id="paint17_radial_639_138911" cx="0" cy="0" r="1" gradientUnits="userSpaceOnUse" gradientTransform="translate(527.238 763.692) rotate(112.272) scale(142.879 138.875)">
<stop stop-color="#60AEE1"/>
<stop offset="1" stop-color="#60AEE1" stop-opacity="0"/>
</radialGradient>
<radialGradient id="paint18_radial_639_138911" cx="0" cy="0" r="1" gradientUnits="userSpaceOnUse" gradientTransform="translate(733.066 958.352) rotate(112.272) scale(142.879 138.875)">
<stop stop-color="#60AEE1"/>
<stop offset="1" stop-color="#60AEE1" stop-opacity="0"/>
</radialGradient>
<radialGradient id="paint19_radial_639_138911" cx="0" cy="0" r="1" gradientUnits="userSpaceOnUse" gradientTransform="translate(527.238 958.352) rotate(112.272) scale(142.879 138.875)">
<stop stop-color="#60AEE1"/>
<stop offset="1" stop-color="#60AEE1" stop-opacity="0"/>
</radialGradient>
<radialGradient id="paint20_radial_639_138911" cx="0" cy="0" r="1" gradientUnits="userSpaceOnUse" gradientTransform="translate(733.066 1151.81) rotate(112.272) scale(142.879 138.875)">
<stop stop-color="#60AEE1"/>
<stop offset="1" stop-color="#60AEE1" stop-opacity="0"/>
</radialGradient>
<radialGradient id="paint21_radial_639_138911" cx="0" cy="0" r="1" gradientUnits="userSpaceOnUse" gradientTransform="translate(527.238 1151.81) rotate(112.272) scale(142.879 138.875)">
<stop stop-color="#60AEE1"/>
<stop offset="1" stop-color="#60AEE1" stop-opacity="0"/>
</radialGradient>
</defs>
</svg>
