<svg width="25" height="20" viewBox="0 0 25 20" fill="none" xmlns="http://www.w3.org/2000/svg">
<path d="M-1.51989 2.14333L10.9801 8.85833C11.4001 9.08333 11.9434 9.19 12.4901 9.19C13.0368 9.19 13.5801 9.08333 14.0001 8.85833L26.5001 2.14333C27.3151 1.705 28.0851 0 26.5901 0H-1.60823C-3.10323 0 -2.33323 1.705 -1.51989 2.14333ZM26.8784 5.815L14.0001 12.5267C13.4334 12.8233 13.0368 12.8583 12.4901 12.8583C11.9434 12.8583 11.5468 12.8233 10.9801 12.5267C10.4134 12.23 -0.908226 6.295 -1.83323 5.81333C-2.48323 5.47333 -2.47656 5.87167 -2.47656 6.17833V18.3333C-2.47656 19.0333 -1.53323 20 -0.809893 20H25.8568C26.5801 20 27.5234 19.0333 27.5234 18.3333V6.18C27.5234 5.87333 27.5301 5.475 26.8784 5.815Z" fill="white"/>
</svg>
