<svg width="120" height="120" viewBox="0 0 120 120" fill="none" xmlns="http://www.w3.org/2000/svg">
<path d="M101.903 61.8127C101.81 61.7723 101.789 61.757 101.766 61.7557C99.627 61.6305 99.6168 61.6278 99.095 63.5987C97.4848 69.6743 95.8715 75.7499 94.293 81.8338C94.1373 82.4344 93.9095 82.6359 93.2522 82.6276C90.3487 82.5887 87.4437 82.597 84.5389 82.622C83.9104 82.6276 83.3741 82.5081 82.8623 82.1509C82.3202 81.7713 81.7522 81.4196 81.1656 81.107C80.7445 80.8832 80.7027 80.6261 80.8166 80.2049C82.4024 74.2891 83.9651 68.3678 85.5538 62.4534C85.6692 62.0267 85.6446 61.8071 85.1934 61.5986C84.6369 61.3428 84.1367 60.9745 83.6235 60.6617C83.5586 60.7131 83.4981 60.7367 83.4966 60.7646C83.4375 61.5653 82.9661 61.7334 82.1962 61.7015C80.759 61.6416 79.3158 61.6931 77.8771 61.6792C77.4966 61.675 77.2558 61.7417 77.1505 62.1518C76.3432 65.2835 75.5186 68.4094 74.6465 71.7371C75.5128 71.4424 76.2885 71.2548 76.9906 70.9198C77.6523 70.6028 78.1857 70.6112 78.7537 71.0601C79.0665 71.3076 79.4096 71.5495 79.7816 71.6926C80.769 72.0734 80.9564 72.7477 80.8757 73.7095C80.6898 75.8974 80.6307 78.0948 80.4822 80.2854C80.4662 80.526 80.2688 80.879 80.0598 80.9651C76.5682 82.4093 72.9641 83.3559 69.1135 83.1183C67.7973 83.0377 66.5747 82.6512 65.4474 82.0049C64.336 81.3682 63.2245 80.7261 62.1533 80.0297C60.6828 79.072 60.2517 77.6001 60.1696 75.996C60.0644 73.9527 60.7175 72.0277 61.2235 70.083C61.8996 67.4894 62.6002 64.9012 63.2864 62.3102C63.3268 62.1559 63.3441 61.9961 63.3715 61.8446C62.6882 61.4346 62.025 61.0357 61.2969 60.5992C61.1759 61.0106 61.075 61.3581 60.9567 61.7625C58.9717 61.7625 56.9822 61.7834 54.9942 61.7502C54.4363 61.7404 54.22 61.903 54.0816 62.4326C52.3661 68.9585 50.6145 75.4747 48.8961 82.0007C48.7505 82.5511 48.5097 82.7096 47.9245 82.7026C45.021 82.6692 42.1161 82.7026 39.2112 82.6707C38.7657 82.6652 38.3217 82.4427 37.8821 82.3037C37.7494 82.262 37.6327 82.1662 37.5144 82.0882C36.8254 81.6379 35.8104 81.3155 35.5423 80.6956C35.2901 80.1118 35.8162 79.2097 36.0167 78.4521C37.4697 72.9797 38.9287 67.5088 40.3847 62.0378C40.402 61.9739 40.3978 61.903 40.402 61.8418C39.7259 61.4374 39.0613 61.0398 38.3174 60.595C36.4058 67.9841 34.5058 75.3232 32.5941 82.7096C30.7229 82.7096 28.8531 82.7096 26.9834 82.7096C26.3347 82.7096 25.6786 82.6429 25.04 82.7221C23.0521 82.9667 21.3366 82.4441 19.7781 81.2445C19.3687 80.929 19.2722 80.7094 19.399 80.2395C20.9271 74.5713 22.4494 68.9029 23.93 63.2235C24.188 62.2311 24.2486 61.19 24.4 60.171C24.3264 60.1224 24.2529 60.0751 24.1794 60.0265C23.6028 60.2726 23.003 60.4783 22.4538 60.7716C21.0078 61.543 19.8459 62.6215 18.8036 63.8573C17.7786 65.0735 17.6372 66.5677 17.2496 67.9772C15.9059 72.8574 14.617 77.7501 13.2894 82.7096C13.0068 82.7096 12.7242 82.7096 12.4402 82.7096C9.53536 82.7096 6.63191 82.6971 3.72704 82.7194C3.12587 82.7234 2.61265 82.615 2.12106 82.2703C1.4262 81.7839 0.342094 81.4836 0.0739516 80.8484C-0.191308 80.2202 0.326237 79.2707 0.538156 78.4716C2.82169 69.8732 5.12108 61.2775 7.38589 52.6735C7.5315 52.1189 7.77224 52.0036 8.30997 52.0091C10.902 52.0342 13.494 52.0063 16.0861 52.0314C16.6353 52.0369 17.1832 52.1815 17.9285 52.2913C19.471 51.1765 21.348 50.1757 23.4657 49.6489C26.0679 49.0012 28.6859 48.6078 31.3284 49.4029C31.9815 49.5989 32.597 49.9367 33.1953 50.2675C33.9234 50.6677 34.598 51.1584 35.3246 51.5588C36.883 52.4192 37.9311 53.6368 38.4053 55.3715C38.711 54.2289 39.0152 53.0878 39.3324 51.9035C40.2622 51.9035 41.1791 51.8382 42.0787 51.923C42.8802 51.998 43.1008 51.6699 43.3155 50.993C43.9196 49.079 44.4876 47.1331 45.3454 45.3205C46.6832 42.4919 48.7332 40.1859 51.5732 38.6042C55.0144 36.686 58.6257 36.6401 62.345 37.6673C64.6833 38.3136 66.7016 39.5327 68.6984 40.8865C67.3619 43.4955 66.0399 46.0767 64.7886 48.5189C63.6583 48.2173 62.6189 47.8809 61.5507 47.671C60.0615 47.3791 58.8116 47.8586 58.0388 49.1263C57.5329 49.9575 57.2201 50.8972 56.753 51.9411C58.7583 51.9451 60.5978 51.6102 61.9428 53.1475C62.3369 52.3422 62.9779 51.9396 63.866 51.9396C64.3936 51.9396 64.9241 51.9132 65.4503 51.9466C65.9174 51.9757 66.1091 51.8145 66.2259 51.3656C67.2148 47.5876 68.2355 43.8166 69.2461 40.0442C69.2576 39.9997 69.2821 39.9594 69.3427 39.8246H70.0707C72.9986 39.8246 75.9281 39.8371 78.856 39.8148C79.4557 39.8107 79.9775 39.9038 80.462 40.2596C80.8613 40.5529 81.3082 40.7836 81.7277 41.0519C82.894 41.7997 82.7671 41.3883 82.4009 42.7727C81.6441 45.6319 80.8555 48.4841 80.0828 51.3392C80.0367 51.5101 80.028 51.6894 79.9848 51.9827C81.5965 51.7311 83.0324 51.9953 84.3559 53.2574C84.2621 51.8604 85.0867 51.9772 85.8667 52.0174C86.0815 52.0286 86.2991 52.0189 86.5139 52.0189C88.3967 52.0189 88.3664 52.0119 88.809 50.2703C90.3183 44.3211 93.9946 40.1248 99.9701 38.0065C104.743 36.3162 109.41 36.8055 113.761 39.3909C115.779 40.5904 117.717 41.9137 119.687 43.1841C119.782 43.2453 119.859 43.3356 120 43.4635C117.974 46.0572 115.961 48.6342 113.851 51.335C112.71 50.533 111.347 49.938 110.542 48.9303C109.192 47.2415 105.297 47.2095 103.848 48.7719C103.021 49.6642 102.356 50.622 102.173 51.9354C102.507 51.9354 102.788 51.9354 103.07 51.9354C106.741 51.9354 110.415 51.9479 114.086 51.9243C114.744 51.9202 115.296 52.0522 115.824 52.4288C116.363 52.8111 116.932 53.1628 117.523 53.4659C117.957 53.6882 117.985 53.9634 117.877 54.3665C115.417 63.564 112.959 72.763 110.523 81.9673C110.39 82.4691 110.175 82.6206 109.652 82.6165C106.652 82.5942 103.651 82.6234 100.651 82.5872C100.181 82.5817 99.6904 82.3885 99.2535 82.1925C98.7793 81.9798 98.3512 81.6699 97.9128 81.3863C96.7667 80.6454 96.8649 81.0486 97.2295 79.6544C98.7592 73.7971 100.313 67.9452 101.857 62.0906C101.88 62.0031 101.889 61.9128 101.906 61.8084L101.903 61.8127ZM110.909 47.917C111.742 46.8481 112.522 45.8529 113.296 44.8535C114.079 43.8444 114.856 42.8311 115.631 41.8261C113.637 40.0748 110.208 38.4832 107.772 38.151C100.627 37.178 93.6947 40.8837 90.8576 47.3026C90.1497 48.9039 89.7417 50.6288 89.2386 52.3094C89.103 52.7625 88.9229 52.9488 88.4126 52.9237C87.5504 52.8792 86.684 52.8904 85.822 52.9293C85.6201 52.939 85.2986 53.1225 85.2539 53.2837C84.7408 55.1157 84.2694 56.9588 83.7576 58.9187H87.3977C85.5437 65.9325 83.7214 72.8295 81.8878 79.7684H90.2723C92.106 72.8365 93.9426 65.9006 95.7735 58.9813H103.642C101.804 65.9353 99.9816 72.831 98.1493 79.7698H106.534C108.934 70.8489 111.333 61.9321 113.765 52.8917H97.3896C97.7932 51.4587 98.1075 50.1313 98.5472 48.8441C98.9825 47.5695 99.7624 46.4839 100.939 45.7208C102.804 44.5102 104.791 44.6659 106.795 45.3219C108.366 45.8362 109.665 46.7814 110.909 47.917ZM20.3966 79.9213C23.0521 79.9213 25.5936 79.9088 28.1352 79.9324C28.6369 79.9365 28.8244 79.7948 28.9498 79.3153C30.4563 73.5718 31.996 67.8368 33.5197 62.0976C34.144 59.7472 34.7163 57.3911 34.5317 54.928C34.3486 52.465 33.0007 50.7484 30.5095 50.2452C29.2698 49.995 27.9333 50.0006 26.6633 50.116C23.0795 50.4412 19.8819 51.7033 17.2798 54.1636C16.4177 54.9781 15.6551 55.8886 14.7195 56.8935C15.0943 55.5077 15.4243 54.2943 15.7631 53.0432H8.32006C5.93273 62.0003 3.54972 70.9379 1.15661 79.9184H9.55553C9.61896 79.7461 9.68817 79.5988 9.72853 79.4445C11.0346 74.5324 12.3898 69.6313 13.6166 64.6997C14.0404 62.9941 14.8362 61.5638 16.0688 60.3268C17.5551 58.8353 19.2447 57.6565 21.4013 57.2313C23.212 56.874 24.7416 57.7581 24.9925 59.515C25.1496 60.6117 25.1223 61.7904 24.8786 62.8704C24.2659 65.5948 23.4846 68.283 22.7695 70.9865C21.9896 73.9318 21.2068 76.8773 20.3981 79.9227L20.3966 79.9213ZM58.8852 52.9001H52.0576C52.6356 51.0625 53.0465 49.2778 53.7602 47.614C54.7318 45.3497 56.3579 44.5894 58.8908 44.9591C59.7127 45.0787 60.5142 45.3219 61.408 45.5262C62.4012 43.597 63.4191 41.6218 64.47 39.5785C61.0879 38.1635 57.7088 37.4588 54.1639 38.6528C50.3954 39.9219 47.7803 42.4683 46.1873 45.9127C45.279 47.8781 44.6822 49.9853 44.0537 52.0592C43.8418 52.7597 43.5621 52.9835 42.8427 52.9237C42.1045 52.8626 41.355 52.8848 40.6126 52.9265C40.4092 52.9376 40.0863 53.1142 40.0416 53.274C39.5169 55.1393 39.0354 57.0158 38.5164 58.9924H42.1709C40.3083 65.9784 38.4731 72.8644 36.6264 79.7907C36.8398 79.8213 36.9536 79.8519 37.069 79.8519C39.5414 79.8546 42.0124 79.8406 44.4848 79.867C44.9864 79.8727 45.0715 79.603 45.1652 79.2513C45.9811 76.1697 46.8029 73.0881 47.6231 70.0066C48.5991 66.3482 49.5751 62.691 50.5684 58.9729C50.8467 58.9729 51.1061 58.9729 51.3656 58.9729C53.1417 58.9729 54.9178 58.9688 56.6939 58.9756C57.0211 58.9756 57.295 58.9841 57.3974 58.5809C57.8702 56.728 58.3647 54.8794 58.8852 52.8974V52.9001ZM76.7411 72.047C75.967 72.2931 75.2966 72.5377 74.609 72.7184C72.3024 73.3217 69.9713 72.7337 70.8219 69.4464C71.6897 66.0923 72.5878 62.7439 73.4542 59.39C73.5609 58.9785 73.7959 58.9214 74.1721 58.9256C75.7551 58.9395 77.3394 58.9437 78.9238 58.9173C79.153 58.9131 79.535 58.7603 79.5811 58.6032C80.1391 56.724 80.648 54.8294 81.1914 52.8583H75.2591C76.3432 48.801 77.4071 44.8215 78.474 40.8323C78.3111 40.7906 78.2433 40.7586 78.1755 40.7586C75.6326 40.7545 73.088 40.7614 70.5451 40.7433C70.0924 40.7406 70.0044 40.9616 69.9108 41.3146C68.9319 44.9981 67.9271 48.6759 66.9539 52.3621C66.8501 52.7569 66.6901 52.8889 66.2807 52.8764C65.4172 52.8515 64.5521 52.8862 63.6901 52.8611C63.2864 52.85 63.0889 52.9626 63.0038 53.3685C62.8481 54.1122 62.6334 54.8432 62.4315 55.5772C62.1331 56.6572 61.8232 57.7345 61.4845 58.9354H65.0495C65.0192 59.1494 65.015 59.2648 64.9861 59.3732C64.2177 62.3006 63.4177 65.2208 62.6838 68.155C62.1071 70.4597 61.4872 72.7657 61.1139 75.105C60.703 77.6793 61.9933 79.4279 64.6012 80.0436C65.6564 80.2924 66.7795 80.3549 67.8722 80.3619C70.3504 80.3772 72.6685 79.6141 75.0054 78.9177C76.0579 78.6036 76.558 78.1685 76.5306 77.0316C76.4917 75.3997 76.6589 73.765 76.7425 72.047H76.7411Z" fill="#F7F7FF"/>
</svg>
