<svg width="120" height="120" viewBox="0 0 120 120" fill="none" xmlns="http://www.w3.org/2000/svg">
<g clip-path="url(#clip0_2870_5542)">
<path fill-rule="evenodd" clip-rule="evenodd" d="M45.4674 5.38981L28.8314 40.3337C28.7681 40.4637 28.748 40.6105 28.7741 40.7527C28.8003 40.8949 28.8712 41.025 28.9765 41.124L73.9063 84.1775C74.0339 84.2999 74.2039 84.3682 74.3808 84.3682C74.5576 84.3682 74.7276 84.2999 74.8552 84.1775L119.785 41.1267C119.89 41.0277 119.961 40.8976 119.987 40.7554C120.013 40.6132 119.993 40.4664 119.93 40.3364L103.294 5.3925C103.24 5.27514 103.154 5.17573 103.045 5.10613C102.937 5.03654 102.81 4.99971 102.681 5.00005H46.0856C45.9559 4.99844 45.8286 5.03438 45.7189 5.10354C45.6092 5.1727 45.5218 5.27212 45.4674 5.38981Z" fill="#50AF95"/>
<path fill-rule="evenodd" clip-rule="evenodd" d="M80.1532 43.922C79.8307 43.9462 78.1641 44.0457 74.4466 44.0457C71.4898 44.0457 69.3905 43.957 68.654 43.922C57.2273 43.4194 48.6983 41.4303 48.6983 39.0487C48.6983 36.6672 57.2273 34.6807 68.654 34.17V41.941C69.4012 41.9948 71.5409 42.1211 74.4977 42.1211C78.0458 42.1211 79.8226 41.9733 80.1425 41.9437V34.1754C91.5449 34.6834 100.055 36.6725 100.055 39.0487C100.055 41.4249 91.5476 43.414 80.1425 43.9194L80.1532 43.922ZM80.1532 33.3717V26.4178H96.0661V15.8137H52.7411V26.4178H68.6513V33.369C55.7194 33.963 45.9942 36.5247 45.9942 39.5944C45.9942 42.6641 55.7194 45.223 68.6513 45.8198V68.1032H80.1505V45.8117C93.0529 45.2177 102.762 42.6587 102.762 39.5917C102.762 36.5247 93.0609 33.9657 80.1505 33.369L80.1532 33.3717Z" fill="white"/>
</g>
<g clip-path="url(#clip1_2870_5542)">
<path d="M33.8704 114.143C52.545 114.143 67.5669 99.0995 67.5669 80.398C67.5669 61.6966 52.545 46.6531 33.8704 46.6531C15.1958 46.6531 0.173859 61.6966 0.173859 80.398C0.173859 99.0995 15.1958 114.143 33.8704 114.143Z" fill="#2775CA"/>
<path d="M43.1369 85.7399C43.1369 80.8199 40.1885 79.1326 34.2916 78.4273C30.0795 77.8638 29.2371 76.7401 29.2371 74.7728C29.2371 72.8054 30.6422 71.54 33.4492 71.54C35.9764 71.54 37.3815 72.3836 38.0824 74.4927C38.224 74.9145 38.6452 75.1946 39.0664 75.1946H41.3139C41.8767 75.1946 42.2979 74.7728 42.2979 74.2092V74.0675C41.7351 70.9731 39.2079 68.5839 35.9798 68.3039V64.9294C35.9798 64.3658 35.5586 63.944 34.8577 63.8057H32.7516C32.1889 63.8057 31.7677 64.2275 31.6295 64.9294V68.1621C27.4175 68.7257 24.7487 71.5366 24.7487 75.0529C24.7487 79.6928 27.5556 81.5218 33.4525 82.2236C37.3849 82.9255 38.6485 83.7692 38.6485 86.02C38.6485 88.2707 36.684 89.8163 34.0153 89.8163C30.3659 89.8163 29.1023 88.2707 28.6811 86.1617C28.5396 85.5981 28.1184 85.3181 27.6972 85.3181H25.3115C24.7487 85.3181 24.3275 85.7399 24.3275 86.3034V86.4451C24.8902 89.9614 27.1344 92.4922 31.7677 93.1941V96.5686C31.7677 97.1322 32.1889 97.554 32.8898 97.6923H34.9958C35.5586 97.6923 35.9798 97.2705 36.1179 96.5686V93.1941C40.3266 92.4889 43.1369 89.5362 43.1369 85.7399Z" fill="white"/>
<path d="M26.7099 100.503C15.7585 96.5653 10.1413 84.3328 14.2152 73.5074C16.3212 67.602 20.9545 63.1038 26.7099 60.9948C27.2726 60.7147 27.5523 60.2929 27.5523 59.5876V57.6203C27.5523 57.0567 27.2726 56.6349 26.7099 56.4966C26.5683 56.4966 26.2887 56.4966 26.1471 56.6383C12.8101 60.8564 5.50802 75.0563 9.72008 88.4159C12.2473 96.2886 18.2857 102.336 26.1471 104.867C26.7099 105.147 27.2692 104.867 27.4107 104.303C27.5523 104.161 27.5523 104.023 27.5523 103.739V101.772C27.5523 101.347 27.1311 100.787 26.7099 100.503ZM41.5902 56.6349C41.0275 56.3549 40.4681 56.6349 40.3266 57.1985C40.1851 57.3402 40.1851 57.4786 40.1851 57.762V59.7293C40.1851 60.2929 40.6063 60.8531 41.0275 61.1365C51.9789 65.0745 57.5961 77.3071 53.5222 88.1325C51.4161 94.0378 46.7829 98.536 41.0275 100.645C40.4648 100.925 40.1851 101.347 40.1851 102.052V104.02C40.1851 104.583 40.4648 105.005 41.0275 105.143C41.169 105.143 41.4487 105.143 41.5902 105.002C54.9273 100.783 62.2293 86.5836 58.0173 73.2239C55.49 65.2129 49.3135 59.1658 41.5902 56.6349Z" fill="white"/>
</g>
<g clip-path="url(#clip2_2870_5542)">
<path d="M96.1575 94.8326L102.767 88.2255L109.38 94.838L113.224 90.9914L102.767 80.5325L92.311 90.9888L96.1575 94.8326Z" fill="#F3BA2F"/>
<path d="M85.7469 97.5501L89.5908 93.7036L93.4373 97.5501L89.5908 101.394L85.7469 97.5501Z" fill="#F3BA2F"/>
<path d="M96.1575 100.265L102.767 106.875L109.38 100.262L113.226 104.103L102.77 114.562L92.311 104.111L96.1575 100.265Z" fill="#F3BA2F"/>
<path d="M112.089 97.5501L115.933 93.7036L119.78 97.5474L115.933 101.397L112.089 97.5501Z" fill="#F3BA2F"/>
<path d="M106.668 97.5475L102.767 93.6445L99.8831 96.5287L99.5498 96.8594L98.867 97.5421L102.767 101.44L106.668 97.5502V97.5475Z" fill="#F3BA2F"/>
</g>
<defs>
<clipPath id="clip0_2870_5542">
<rect width="91.2385" height="79.3683" fill="white" transform="translate(28.7615 5)"/>
</clipPath>
<clipPath id="clip1_2870_5542">
<rect width="67.7374" height="68.0062" fill="white" transform="translate(0 46.395)"/>
</clipPath>
<clipPath id="clip2_2870_5542">
<rect width="34.0327" height="34.0327" fill="white" transform="translate(85.7469 80.5325)"/>
</clipPath>
</defs>
</svg>
