<svg width="24" height="20" viewBox="0 0 24 20" fill="none" xmlns="http://www.w3.org/2000/svg">
<path d="M24.6168 2.36736C23.7257 2.76965 22.7685 3.04037 21.7638 3.16248C22.7899 2.53774 23.5767 1.54858 23.9473 0.369161C22.9882 0.947513 21.9249 1.36779 20.7926 1.59496C19.8866 0.613375 18.596 0 17.1677 0C14.4245 0 12.201 2.26135 12.201 5.04899C12.201 5.44465 12.2457 5.83085 12.3295 6.19906C8.20174 5.98892 4.54237 3.97842 2.09161 0.922902C1.66515 1.6688 1.42026 2.53585 1.42026 3.46254C1.42026 5.21369 2.29646 6.75943 3.62892 7.66435C2.8151 7.63784 2.04878 7.41067 1.37929 7.03299C1.37929 7.05476 1.37929 7.07464 1.37929 7.09641C1.37929 9.54328 3.09072 11.5841 5.36363 12.0469C4.94741 12.1624 4.50791 12.224 4.05445 12.224C3.73507 12.224 3.42314 12.1918 3.12052 12.134C3.75276 14.1398 5.5871 15.6004 7.76038 15.6411C6.06105 16.9956 3.91943 17.803 1.59159 17.803C1.1912 17.803 0.795466 17.7794 0.40625 17.732C2.60467 19.1642 5.21465 20 8.02017 20C17.1565 20 22.1511 12.3063 22.1511 5.63396C22.1511 5.41531 22.1465 5.1976 22.1372 4.98083C23.1083 4.26807 23.951 3.37924 24.6168 2.36736Z" fill="white"/>
</svg>
