<svg width="120" height="120" viewBox="0 0 120 120" fill="none" xmlns="http://www.w3.org/2000/svg">
<path d="M48.8485 27.2925C47.5489 27.1068 47.487 27.0449 48.1059 26.983C49.2818 26.7974 52.0048 27.0449 53.9233 27.4781C58.3792 28.5302 62.4019 31.2533 66.6722 36.0186L67.7861 37.3182L69.3952 37.0707C76.2647 35.9567 83.3199 36.8231 89.1992 39.5462C90.8083 40.2889 93.3457 41.7742 93.6551 42.1455C93.7789 42.2693 93.9646 43.0738 94.0884 43.8783C94.5216 46.787 94.3359 48.9531 93.4076 50.6241C92.9125 51.5524 92.9125 51.7999 93.2219 52.6045C93.4695 53.2234 94.2121 53.6566 94.8929 53.6566C96.3782 53.6566 97.9254 51.3048 98.668 48.0248L98.9775 46.7252L99.5345 47.344C102.691 50.8716 105.166 55.7607 105.538 59.2264L105.661 60.1548L105.104 59.3502C104.176 57.9268 103.31 56.9985 102.134 56.194C100.03 54.7705 97.8016 54.3373 91.9223 54.0279C86.6 53.7185 83.5675 53.2852 80.5969 52.295C75.5221 50.6241 72.9228 48.458 66.9197 40.4745C64.2585 36.9469 62.5876 35.0284 60.9166 33.4193C57.2653 29.8917 53.6139 28.0351 48.8485 27.2925Z" fill="#FF007A"/>
<path d="M94.9548 35.1523C95.0786 32.8005 95.388 31.2533 96.0688 29.8299C96.3163 29.2729 96.5639 28.7778 96.6258 28.7778C96.6877 28.7778 96.5639 29.211 96.3782 29.7061C95.8831 31.0677 95.8212 32.9862 96.1307 35.1523C96.5639 37.9372 96.7495 38.3085 99.7201 41.341C101.082 42.7644 102.691 44.5592 103.31 45.3018L104.362 46.6633L103.31 45.6731C102.01 44.4354 99.0394 42.0837 98.3586 41.7742C97.9254 41.5267 97.8635 41.5267 97.5541 41.8361C97.3065 42.0837 97.2446 42.455 97.2446 44.2497C97.1828 47.0347 96.8114 48.7675 95.8831 50.5623C95.388 51.4906 95.3261 51.3049 95.7593 50.2528C96.0688 49.4483 96.1307 49.077 96.1307 46.4158C96.1307 41.0316 95.5118 39.7319 91.7367 37.5659C90.8083 37.0089 89.1993 36.2043 88.2709 35.7711C87.2807 35.3379 86.5381 34.9666 86.6 34.9666C86.7238 34.8428 90.3751 35.8949 91.7985 36.5138C93.9646 37.3802 94.3359 37.4421 94.5835 37.3802C94.7691 37.1945 94.8929 36.6994 94.9548 35.1523Z" fill="#FF007A"/>
<path d="M51.3858 44.3735C48.7865 40.7841 47.1156 35.2142 47.4869 31.0677L47.6107 29.7681L48.2296 29.8918C49.3435 30.0775 51.262 30.8202 52.1904 31.3771C54.6659 32.8624 55.7798 34.9047 56.8319 39.9795C57.1414 41.4648 57.5746 43.1977 57.7602 43.7547C58.0697 44.683 59.2455 46.849 60.2357 48.2106C60.9165 49.2008 60.4833 49.6959 58.9361 49.5721C56.5844 49.3245 53.4281 47.1585 51.3858 44.3735Z" fill="#FF007A"/>
<path d="M91.7985 71.2947C79.5448 66.3437 75.2127 62.0734 75.2127 54.8326C75.2127 53.7805 75.2746 52.9141 75.2746 52.9141C75.3364 52.9141 75.7697 53.2854 76.3266 53.7186C78.8022 55.699 81.5871 56.5654 89.323 57.6794C93.8408 58.3602 96.4401 58.8553 98.7918 59.6598C106.28 62.1353 110.922 67.2101 112.036 74.0796C112.345 76.06 112.16 79.8352 111.664 81.8156C111.231 83.3627 109.993 86.2096 109.684 86.2715C109.622 86.2715 109.498 85.962 109.498 85.4669C109.375 82.8677 108.075 80.3921 105.909 78.4736C103.31 76.2457 99.9677 74.5747 91.7985 71.2947Z" fill="#FF007A"/>
<path d="M83.1342 73.3367C83.0104 72.4084 82.701 71.2325 82.5153 70.7374L82.2059 69.8091L82.7629 70.4898C83.5674 71.4182 84.1863 72.5321 84.7433 74.0793C85.1765 75.2552 85.1765 75.6265 85.1765 77.545C85.1765 79.4017 85.1146 79.8349 84.7433 80.887C84.1244 82.5579 83.3817 83.7338 82.144 85.0334C79.916 87.3233 77.0073 88.561 72.8609 89.118C72.1182 89.1799 70.014 89.3656 68.1574 89.4893C63.5158 89.7369 60.4214 90.232 57.6365 91.2222C57.2652 91.3459 56.8939 91.4697 56.832 91.4078C56.7082 91.2841 58.6267 90.1701 60.1739 89.4274C62.34 88.3754 64.5679 87.8184 69.457 86.9519C71.8707 86.5806 74.3462 86.0855 74.965 85.838C81.0919 83.9194 84.1244 79.1541 83.1342 73.3367Z" fill="#FF007A"/>
<path d="M88.7659 83.3007C87.1568 79.7731 86.7855 76.4311 87.6519 73.2749C87.7757 72.9654 87.8995 72.656 88.0233 72.656C88.147 72.656 88.5184 72.8417 88.8897 73.0892C89.6323 73.5843 91.1795 74.4507 95.1403 76.6168C100.153 79.3399 103 81.444 104.98 83.8577C106.713 85.9618 107.765 88.3755 108.261 91.3461C108.57 93.017 108.384 97.0397 107.951 98.7107C106.59 103.971 103.495 108.179 98.9774 110.593C98.2966 110.964 97.7396 111.212 97.6777 111.212C97.6158 111.212 97.8634 110.593 98.2347 109.85C99.72 106.694 99.9057 103.662 98.7917 100.258C98.1109 98.1537 96.6875 95.6163 93.8407 91.3461C90.4369 86.395 89.6323 85.0954 88.7659 83.3007Z" fill="#FF007A"/>
<path d="M42.6598 102.238C47.2395 98.4011 52.8713 95.678 58.0698 94.8116C60.2978 94.4403 64.011 94.5641 66.0533 95.1211C69.3334 95.9875 72.304 97.8441 73.8511 100.134C75.3364 102.362 76.0172 104.28 76.698 108.551C76.9455 110.222 77.255 111.954 77.3168 112.326C77.8119 114.554 78.8021 116.287 80.0399 117.215C81.9584 118.638 85.3003 118.7 88.5804 117.462C89.1374 117.277 89.6325 117.091 89.6325 117.153C89.7562 117.277 88.0853 118.391 86.9713 118.948C85.4241 119.752 84.1864 120 82.5154 120C79.5448 120 77.0074 118.453 74.9651 115.358C74.5319 114.739 73.6655 112.945 72.9228 111.274C70.7568 106.261 69.6428 104.776 67.1054 103.105C64.8774 101.681 62.0306 101.372 59.8646 102.424C57.0177 103.785 56.2751 107.437 58.2555 109.665C59.06 110.593 60.5453 111.336 61.7831 111.521C64.0729 111.831 66.0533 110.036 66.0533 107.746C66.0533 106.261 65.4963 105.394 64.011 104.714C62.0306 103.847 59.8646 104.837 59.9264 106.756C59.9264 107.56 60.2978 108.056 61.1023 108.427C61.5974 108.674 61.5974 108.674 61.2261 108.613C59.4313 108.241 58.9981 106.013 60.4215 104.59C62.1544 102.857 65.8058 103.6 67.0435 106.013C67.5386 107.003 67.6005 108.984 67.1673 110.222C66.1152 112.945 63.1446 114.368 60.1121 113.564C58.0698 113.007 57.2034 112.45 54.7279 109.912C50.3958 105.456 48.7248 104.59 42.536 103.662L41.3602 103.476L42.6598 102.238Z" fill="#FF007A"/>
<path fill-rule="evenodd" clip-rule="evenodd" d="M10.1069 2.66117C24.5267 20.1753 46.7444 47.4059 47.8583 48.8912C48.7867 50.1289 48.4153 51.3048 46.8681 52.1712C46.0017 52.6663 44.207 53.1614 43.3406 53.1614C42.3504 53.1614 41.1745 52.6663 40.3699 51.8618C39.813 51.3048 37.3993 47.7772 31.9532 39.2986C27.8068 32.8004 24.2792 27.4162 24.2173 27.3543C23.9697 27.2305 23.9697 27.2305 31.52 40.722C36.2854 49.2006 37.8326 52.2331 37.8326 52.6044C37.8326 53.409 37.585 53.8422 36.5948 54.9562C34.9238 56.8128 34.1812 58.917 33.6242 63.311C33.0053 68.2001 31.3344 71.6658 26.569 77.5451C23.7841 81.0108 23.3509 81.6297 22.6701 83.0531C21.8037 84.786 21.5561 85.7762 21.4324 88.0041C21.3086 90.3559 21.5561 91.8411 22.2369 94.0691C22.8558 96.0495 23.5365 97.3491 25.2075 99.8865C26.6309 102.114 27.4973 103.785 27.4973 104.404C27.4973 104.899 27.6211 104.899 29.8491 104.404C35.1714 103.167 39.5654 101.062 41.979 98.4631C43.4643 96.854 43.8357 95.9876 43.8357 93.7597C43.8357 92.3363 43.7738 92.0268 43.4024 91.1604C42.7836 89.7989 41.6077 88.6849 39.0703 86.952C35.7284 84.6622 34.305 82.8056 33.9336 80.3301C33.6242 78.2259 33.9955 76.8025 35.8522 72.9036C37.7707 68.8809 38.2658 67.2099 38.5752 63.1253C38.7609 60.526 39.0703 59.474 39.813 58.6694C40.6175 57.803 41.2983 57.4935 43.2168 57.246C46.373 56.8128 48.4153 56.0082 50.0244 54.4611C51.4478 53.1614 52.0667 51.8618 52.1286 49.9433L52.1905 48.5199L51.3859 47.6534C48.4772 44.3115 8.18842 0 8.00275 0C7.94087 0 8.93107 1.17586 10.1069 2.66117ZM29.1064 90.6653C29.7872 89.4894 29.4159 88.0041 28.3019 87.2615C27.2498 86.5807 25.6407 86.8901 25.6407 87.8185C25.6407 88.066 25.7645 88.3136 26.1358 88.4373C26.6928 88.7468 26.7547 89.0562 26.3215 89.737C25.8883 90.4177 25.8883 91.0366 26.4452 91.4698C27.3117 92.1506 28.4875 91.7793 29.1064 90.6653Z" fill="#FF007A"/>
<path fill-rule="evenodd" clip-rule="evenodd" d="M54.1708 58.1122C52.6855 58.5454 51.2621 60.1545 50.8289 61.7636C50.5814 62.7538 50.7051 64.5485 51.1383 65.1055C51.8191 65.9719 52.438 66.2195 54.1708 66.2195C57.5747 66.2195 60.4834 64.7342 60.7928 62.9394C61.1023 61.4541 59.8026 59.4119 58.0079 58.4835C57.0796 57.9884 55.161 57.8028 54.1708 58.1122ZM58.1316 61.2066C58.6267 60.4639 58.4411 59.6594 57.5128 59.1024C55.8418 58.0503 53.3044 58.9168 53.3044 60.5258C53.3044 61.3304 54.6041 62.1968 55.8418 62.1968C56.6463 62.1968 57.7603 61.7017 58.1316 61.2066Z" fill="#FF007A"/>
</svg>
